<svg width="57" height="56" viewBox="0 0 57 56" fill="none" xmlns="http://www.w3.org/2000/svg">
<path d="M28.4299 52.5C14.899 52.5 3.92993 41.531 3.92993 28C3.92993 14.469 14.899 3.5 28.4299 3.5C41.9609 3.5 52.9299 14.469 52.9299 28C52.9299 41.531 41.9609 52.5 28.4299 52.5ZM28.4299 56C43.8939 56 56.4299 43.464 56.4299 28C56.4299 12.536 43.8939 0 28.4299 0C12.966 0 0.429932 12.536 0.429932 28C0.429932 43.464 12.966 56 28.4299 56Z" fill="#788DFF"/>
<path d="M38.8237 17.3938C38.799 17.4186 38.7757 17.4448 38.7541 17.4724L26.6008 32.9586L19.2735 25.6313C18.2484 24.6062 16.5863 24.6062 15.5612 25.6313C14.5361 26.6564 14.5361 28.3185 15.5612 29.3436L24.8238 38.6062C25.8489 39.6313 27.5109 39.6313 28.5361 38.6062C28.5589 38.5833 28.5804 38.5593 28.6006 38.534L42.5733 21.0682C43.561 20.0404 43.5486 18.4064 42.5361 17.3938C41.5109 16.3687 39.8489 16.3687 38.8237 17.3938Z" fill="#788DFF"/>
</svg>
