<svg width="23" height="21" viewBox="0 0 23 21" fill="none" xmlns="http://www.w3.org/2000/svg">
<path d="M4.28838 15.5953C4.57528 15.872 4.71894 16.2572 4.68022 16.6461C4.59344 17.5177 4.39356 18.4247 4.13686 19.2673C6.03898 18.8446 7.20069 18.3543 7.72874 18.097C8.02848 17.9509 8.37374 17.9164 8.6983 18.0001C9.59535 18.2314 10.5514 18.3567 11.5458 18.3567C16.9944 18.3567 21.0913 14.6755 21.0913 10.4896C21.0913 6.30369 16.9944 2.62247 11.5458 2.62247C6.09727 2.62247 2.00036 6.30369 2.00036 10.4896C2.00036 12.4145 2.84213 14.2008 4.28838 15.5953ZM3.61612 20.7155C3.60694 20.7172 3.59774 20.719 3.58853 20.7207C3.46331 20.7445 3.33566 20.7678 3.20556 20.7907C3.02308 20.8229 2.83578 20.8541 2.64361 20.8844C2.37223 20.9271 2.16449 20.6541 2.27169 20.4106C2.34173 20.2515 2.41077 20.0848 2.47804 19.9119C2.52077 19.8021 2.56278 19.6898 2.60388 19.5754C2.60565 19.5704 2.60742 19.5655 2.60919 19.5606C2.94702 18.6169 3.22213 17.5322 3.32279 16.5212C1.64998 14.9082 0.636719 12.7984 0.636719 10.4896C0.636719 5.42055 5.52089 1.31128 11.5458 1.31128C17.5707 1.31128 22.4549 5.42055 22.4549 10.4896C22.4549 15.5586 17.5707 19.6679 11.5458 19.6679C10.4321 19.6679 9.35728 19.5275 8.34513 19.2665C7.63676 19.6117 6.11081 20.24 3.61612 20.7155Z" fill="#3250F5"/>
</svg>
