<svg width="23" height="24" viewBox="0 0 23 24" fill="none" xmlns="http://www.w3.org/2000/svg">
<path d="M23 11.9824C23 11.9824 18.6875 4.07611 11.5 4.07611C4.3125 4.07611 0 11.9824 0 11.9824C0 11.9824 4.3125 19.8886 11.5 19.8886C18.6875 19.8886 23 11.9824 23 11.9824ZM1.68576 11.9824C1.76759 11.8576 1.8609 11.719 1.96546 11.569C2.44685 10.8783 3.15719 9.95966 4.07115 9.0457C5.92398 7.19287 8.45339 5.51361 11.5 5.51361C14.5466 5.51361 17.076 7.19287 18.9288 9.0457C19.8428 9.95966 20.5531 10.8783 21.0345 11.569C21.1391 11.719 21.2324 11.8576 21.3142 11.9824C21.2324 12.1071 21.1391 12.2458 21.0345 12.3958C20.5531 13.0865 19.8428 14.0051 18.9288 14.919C17.076 16.7718 14.5466 18.4511 11.5 18.4511C8.45339 18.4511 5.92398 16.7718 4.07115 14.919C3.15719 14.0051 2.44685 13.0865 1.96546 12.3958C1.8609 12.2458 1.76759 12.1071 1.68576 11.9824Z" fill="#9999A3"/>
<path d="M11.5 8.38861C9.51523 8.38861 7.90625 9.99759 7.90625 11.9824C7.90625 13.9671 9.51523 15.5761 11.5 15.5761C13.4848 15.5761 15.0938 13.9671 15.0938 11.9824C15.0938 9.99759 13.4848 8.38861 11.5 8.38861ZM6.46875 11.9824C6.46875 9.20368 8.72132 6.95111 11.5 6.95111C14.2787 6.95111 16.5312 9.20368 16.5312 11.9824C16.5312 14.761 14.2787 17.0136 11.5 17.0136C8.72132 17.0136 6.46875 14.761 6.46875 11.9824Z" fill="#9999A3"/>
</svg>
