<svg width="23" height="24" viewBox="0 0 23 24" fill="none" xmlns="http://www.w3.org/2000/svg">
<path d="M19.2034 16.6364C21.6506 14.4562 23 11.9824 23 11.9824C23 11.9824 18.6875 4.0761 11.5 4.0761C10.0404 4.0761 8.69934 4.40216 7.4889 4.92184L8.59703 6.02996C9.50163 5.70504 10.4713 5.5136 11.5 5.5136C14.5466 5.5136 17.076 7.19287 18.9288 9.04569C19.8428 9.95965 20.5531 10.8783 21.0345 11.569C21.1391 11.719 21.2324 11.8576 21.3142 11.9824C21.2324 12.1071 21.1391 12.2457 21.0345 12.3958C20.5531 13.0865 19.8428 14.0051 18.9288 14.919C18.6919 15.1559 18.4439 15.39 18.1852 15.6181L19.2034 16.6364Z" fill="#9999A3"/>
<path d="M16.2401 13.6731C16.4286 13.1447 16.5312 12.5755 16.5312 11.9824C16.5312 9.20367 14.2787 6.9511 11.5 6.9511C10.9069 6.9511 10.3377 7.05374 9.80929 7.24223L10.9914 8.42432C11.1575 8.40078 11.3273 8.3886 11.5 8.3886C13.4848 8.3886 15.0938 9.99758 15.0938 11.9824C15.0938 12.155 15.0816 12.3248 15.058 12.491L16.2401 13.6731Z" fill="#9999A3"/>
<path d="M12.0087 15.5404L13.1907 16.7225C12.6623 16.911 12.0932 17.0136 11.5 17.0136C8.72132 17.0136 6.46875 14.761 6.46875 11.9824C6.46875 11.3892 6.57139 10.82 6.75989 10.2916L7.94197 11.4737C7.91843 11.6399 7.90625 11.8097 7.90625 11.9824C7.90625 13.9671 9.51523 15.5761 11.5 15.5761C11.6727 15.5761 11.8425 15.5639 12.0087 15.5404Z" fill="#9999A3"/>
<path d="M4.81482 8.34655C4.55609 8.57466 4.30809 8.80876 4.07115 9.04569C3.15719 9.95965 2.44685 10.8783 1.96546 11.569C1.8609 11.719 1.76759 11.8576 1.68576 11.9824C1.76759 12.1071 1.8609 12.2457 1.96546 12.3958C2.44685 13.0865 3.15719 14.0051 4.07115 14.919C5.92398 16.7718 8.45339 18.4511 11.5 18.4511C12.5287 18.4511 13.4984 18.2597 14.403 17.9347L15.5111 19.0429C14.3007 19.5625 12.9596 19.8886 11.5 19.8886C4.3125 19.8886 0 11.9824 0 11.9824C0 11.9824 1.34941 9.50844 3.79661 7.32833L4.81482 8.34655Z" fill="#9999A3"/>
<path d="M19.6168 21.1156L2.36677 3.86559L3.38323 2.84912L20.6332 20.0991L19.6168 21.1156Z" fill="#9999A3"/>
</svg>
