<svg width="23" height="22" viewBox="0 0 23 22" fill="none" xmlns="http://www.w3.org/2000/svg">
<mask id="path-1-inside-1_469_1145" fill="white">
<path d="M11.455 0C16.2643 0.000144147 20.2002 3.36851 20.5341 7.63574H20.5594V15.2734H22.9091V21.1475H-0.00012207V15.2734H2.34949V7.63574H2.37488C2.70877 3.3684 6.64543 0 11.455 0ZM1.30945 19.8389H21.5995V16.583H1.30945V19.8389Z"/>
</mask>
<path d="M11.455 0L11.455 -1.30909H11.455V0ZM20.5341 7.63574L19.229 7.73786L19.3234 8.94483H20.5341V7.63574ZM20.5594 7.63574H21.8685V6.32665H20.5594V7.63574ZM20.5594 15.2734H19.2504V16.5825H20.5594V15.2734ZM22.9091 15.2734H24.2181V13.9643H22.9091V15.2734ZM22.9091 21.1475V22.4566H24.2181V21.1475H22.9091ZM-0.00012207 21.1475H-1.30921V22.4566H-0.00012207V21.1475ZM-0.00012207 15.2734V13.9643H-1.30921V15.2734H-0.00012207ZM2.34949 15.2734V16.5825H3.65858V15.2734H2.34949ZM2.34949 7.63574V6.32665H1.0404V7.63574H2.34949ZM2.37488 7.63574V8.94483H3.58554L3.67998 7.73786L2.37488 7.63574ZM1.30945 19.8389H0.00035727V21.148H1.30945V19.8389ZM21.5995 19.8389V21.148H22.9086V19.8389H21.5995ZM21.5995 16.583H22.9086V15.2739H21.5995V16.583ZM1.30945 16.583V15.2739H0.00035727V16.583H1.30945ZM11.455 0L11.4549 1.30909C15.6892 1.30922 18.9564 4.2548 19.229 7.73786L20.5341 7.63574L21.8392 7.53362C21.4439 2.48221 16.8395 -1.30893 11.455 -1.30909L11.455 0ZM20.5341 7.63574V8.94483H20.5594V7.63574V6.32665H20.5341V7.63574ZM20.5594 7.63574H19.2504V15.2734H20.5594H21.8685V7.63574H20.5594ZM20.5594 15.2734V16.5825H22.9091V15.2734V13.9643H20.5594V15.2734ZM22.9091 15.2734H21.6V21.1475H22.9091H24.2181V15.2734H22.9091ZM22.9091 21.1475V19.8384H-0.00012207V21.1475V22.4566H22.9091V21.1475ZM-0.00012207 21.1475H1.30897V15.2734H-0.00012207H-1.30921V21.1475H-0.00012207ZM-0.00012207 15.2734V16.5825H2.34949V15.2734V13.9643H-0.00012207V15.2734ZM2.34949 15.2734H3.65858V7.63574H2.34949H1.0404V15.2734H2.34949ZM2.34949 7.63574V8.94483H2.37488V7.63574V6.32665H2.34949V7.63574ZM2.37488 7.63574L3.67998 7.73786C3.9525 4.25483 7.22039 1.30909 11.455 1.30909V0V-1.30909C6.07047 -1.30909 1.46503 2.48197 1.06978 7.53363L2.37488 7.63574ZM1.30945 19.8389V21.148H21.5995V19.8389V18.5298H1.30945V19.8389ZM21.5995 19.8389H22.9086V16.583H21.5995H20.2904V19.8389H21.5995ZM21.5995 16.583V15.2739H1.30945V16.583V17.8921H21.5995V16.583ZM1.30945 16.583H0.00035727V19.8389H1.30945H2.61854V16.583H1.30945Z" fill="#3250F5" mask="url(#path-1-inside-1_469_1145)"/>
</svg>
