<svg width="23" height="22" viewBox="0 0 23 22" fill="none" xmlns="http://www.w3.org/2000/svg">
<mask id="path-1-inside-1_2_4913" fill="white">
<path fill-rule="evenodd" clip-rule="evenodd" d="M20.5595 15.2738V8.22377V7.6353H20.5366C20.2026 3.36809 16.2641 0 11.4546 0C6.64522 0 2.70674 3.36809 2.37271 7.6353H2.34975V8.22377V15.2738H1.30897H-0.00012207V16.5829V19.8388V21.1479H1.30897H21.5999H22.909V19.8388V16.5829V15.2738H21.5999H20.5595ZM1.30897 16.5829H21.5999V19.8388H1.30897V16.5829Z"/>
</mask>
<path d="M20.5595 15.2738H19.2505V16.5829H20.5595V15.2738ZM20.5595 7.6353H21.8686V6.32621H20.5595V7.6353ZM20.5366 7.6353L19.2315 7.73746L19.326 8.94439H20.5366V7.6353ZM2.37271 7.6353V8.94439H3.58333L3.6778 7.73746L2.37271 7.6353ZM2.34975 7.6353V6.32621H1.04066V7.6353H2.34975ZM2.34975 15.2738V16.5829H3.65884V15.2738H2.34975ZM-0.00012207 15.2738V13.9647H-1.30921V15.2738H-0.00012207ZM-0.00012207 21.1479H-1.30921V22.457H-0.00012207V21.1479ZM22.909 21.1479V22.457H24.2181V21.1479H22.909ZM22.909 15.2738H24.2181V13.9647H22.909V15.2738ZM21.5999 16.5829H22.909V15.2738H21.5999V16.5829ZM1.30897 16.5829V15.2738H-0.00012207V16.5829H1.30897ZM21.5999 19.8388V21.1479H22.909V19.8388H21.5999ZM1.30897 19.8388H-0.00012207V21.1479H1.30897V19.8388ZM19.2505 8.22377V15.2738H21.8686V8.22377H19.2505ZM19.2505 7.6353V8.22377H21.8686V7.6353H19.2505ZM20.5366 8.94439H20.5595V6.32621H20.5366V8.94439ZM11.4546 1.30909C15.6895 1.30909 18.9589 4.25489 19.2315 7.73746L21.8417 7.53314C21.4462 2.48128 16.8386 -1.30909 11.4546 -1.30909V1.30909ZM3.6778 7.73746C3.95042 4.25489 7.21978 1.30909 11.4546 1.30909V-1.30909C6.07066 -1.30909 1.46306 2.48128 1.06761 7.53314L3.6778 7.73746ZM2.34975 8.94439H2.37271V6.32621H2.34975V8.94439ZM3.65884 8.22377V7.6353H1.04066V8.22377H3.65884ZM3.65884 15.2738V8.22377H1.04066V15.2738H3.65884ZM2.34975 13.9647H1.30897V16.5829H2.34975V13.9647ZM1.30897 13.9647H-0.00012207V16.5829H1.30897V13.9647ZM-1.30921 15.2738V16.5829H1.30897V15.2738H-1.30921ZM-1.30921 16.5829V19.8388H1.30897V16.5829H-1.30921ZM-1.30921 19.8388V21.1479H1.30897V19.8388H-1.30921ZM-0.00012207 22.457H1.30897V19.8388H-0.00012207V22.457ZM1.30897 22.457H21.5999V19.8388H1.30897V22.457ZM21.5999 22.457H22.909V19.8388H21.5999V22.457ZM24.2181 21.1479V19.8388H21.5999V21.1479H24.2181ZM24.2181 19.8388V16.5829H21.5999V19.8388H24.2181ZM24.2181 16.5829V15.2738H21.5999V16.5829H24.2181ZM22.909 13.9647H21.5999V16.5829H22.909V13.9647ZM21.5999 13.9647H20.5595V16.5829H21.5999V13.9647ZM21.5999 15.2738H1.30897V17.892H21.5999V15.2738ZM22.909 19.8388V16.5829H20.2908V19.8388H22.909ZM1.30897 21.1479H21.5999V18.5297H1.30897V21.1479ZM-0.00012207 16.5829V19.8388H2.61806V16.5829H-0.00012207Z" fill="#9999A3" mask="url(#path-1-inside-1_2_4913)"/>
</svg>
