<svg width="21" height="21" viewBox="0 0 21 21" fill="none" xmlns="http://www.w3.org/2000/svg">
<path d="M16.8 0H2.8C1.2536 0 3.57628e-07 1.17525 3.57628e-07 2.625V18.375C3.57628e-07 19.8247 1.2536 21 2.8 21H16.8C18.3464 21 19.6 19.8247 19.6 18.375V17.0625H18.2V18.375C18.2 19.0999 17.5732 19.6875 16.8 19.6875H2.8C2.0268 19.6875 1.4 19.0999 1.4 18.375V2.625C1.4 1.90013 2.0268 1.3125 2.8 1.3125H16.8C17.5732 1.3125 18.2 1.90013 18.2 2.625V3.9375H19.6V2.625C19.6 1.17525 18.3464 0 16.8 0Z" fill="#9999A3"/>
<path d="M19.6 6.5625V5.90625C19.6 5.54381 19.2866 5.25 18.9 5.25C18.5134 5.25 18.2 5.54381 18.2 5.90625V6.5625H17.5C17.1134 6.5625 16.8 6.85631 16.8 7.21875C16.8 7.58119 17.1134 7.875 17.5 7.875H20.3C20.6866 7.875 21 7.58119 21 7.21875C21 6.85631 20.6866 6.5625 20.3 6.5625H19.6Z" fill="#9999A3"/>
<path d="M19.6 10.5V9.84375C19.6 9.48131 19.2866 9.1875 18.9 9.1875C18.5134 9.1875 18.2 9.48131 18.2 9.84375V10.5H17.5C17.1134 10.5 16.8 10.7938 16.8 11.1562C16.8 11.5187 17.1134 11.8125 17.5 11.8125H20.3C20.6866 11.8125 21 11.5187 21 11.1562C21 10.7938 20.6866 10.5 20.3 10.5H19.6Z" fill="#9999A3"/>
<path d="M19.6 14.4375V13.7812C19.6 13.4188 19.2866 13.125 18.9 13.125C18.5134 13.125 18.2 13.4188 18.2 13.7812V14.4375H17.5C17.1134 14.4375 16.8 14.7313 16.8 15.0938C16.8 15.4562 17.1134 15.75 17.5 15.75H20.3C20.6866 15.75 21 15.4562 21 15.0938C21 14.7313 20.6866 14.4375 20.3 14.4375H19.6Z" fill="#9999A3"/>
</svg>
