<svg width="12" height="13" viewBox="0 0 12 13" fill="none" xmlns="http://www.w3.org/2000/svg">
<path d="M0.146447 1.56869C-0.0488156 1.37401 -0.0488156 1.05836 0.146447 0.863667C0.341709 0.668979 0.658292 0.668979 0.853554 0.863667L6 5.99498L11.1464 0.863667C11.3417 0.668979 11.6583 0.668979 11.8536 0.863667C12.0488 1.05836 12.0488 1.37401 11.8536 1.56869L6.70711 6.70001L11.8536 11.8313C12.0488 12.026 12.0488 12.3417 11.8536 12.5363C11.6583 12.731 11.3417 12.731 11.1464 12.5363L6 7.40503L0.853554 12.5363C0.658292 12.731 0.341709 12.731 0.146447 12.5363C-0.048815 12.3417 -0.048815 12.026 0.146447 11.8313L5.29289 6.70001L0.146447 1.56869Z" fill="#9999A3"/>
</svg>
